<?xml version="1.0" encoding="UTF-8"?>
<svg xmlns="http://www.w3.org/2000/svg" xmlns:xlink="http://www.w3.org/1999/xlink" viewBox="0 0 50 50" width="50px" height="50px">
<g id="surface6782664">
<path style="fill-rule:nonzero;fill:rgb(0%,0%,0%);fill-opacity:1;stroke-width:1;stroke-linecap:butt;stroke-linejoin:round;stroke:rgb(100%,100%,100%);stroke-opacity:1;stroke-miterlimit:10;" d="M 165.124431 85.999999 C 165.124431 129.651595 129.651595 165.124431 85.999999 165.124431 C 42.348402 165.124431 6.875566 129.651595 6.875566 85.999999 C 6.875566 42.348402 42.348402 6.875566 85.999999 6.875566 C 129.651595 6.875566 165.124431 42.348402 165.124431 85.999999 Z M 13.756539 85.999999 C 13.756539 125.933977 46.06602 158.243458 85.999999 158.243458 C 125.933977 158.243458 158.243458 125.933977 158.243458 85.999999 C 158.243458 46.06602 125.933977 13.756539 85.999999 13.756539 C 46.06602 13.756539 13.756539 46.06602 13.756539 85.999999 Z M 65.357079 51.595132 C 65.357079 57.259431 60.693158 61.923352 55.042378 61.923352 C 49.37808 61.923352 44.714159 57.259431 44.714159 51.595132 C 44.714159 45.944353 49.37808 41.280432 55.042378 41.280432 C 60.693158 41.280432 65.357079 45.944353 65.357079 51.595132 Z M 51.595132 51.595132 C 51.595132 53.541812 53.095698 55.042378 55.042378 55.042378 C 56.97554 55.042378 58.476106 53.541812 58.476106 51.595132 C 58.476106 49.661971 56.97554 48.161405 55.042378 48.161405 C 53.095698 48.161405 51.595132 49.661971 51.595132 51.595132 Z M 61.923352 65.357079 C 63.815957 65.357079 65.357079 66.898201 65.357079 68.804325 L 65.357079 120.404865 C 65.357079 122.29747 63.815957 123.838592 61.923352 123.838592 L 48.161405 123.838592 C 46.255281 123.838592 44.714159 122.29747 44.714159 120.404865 L 44.714159 68.804325 C 44.714159 66.898201 46.255281 65.357079 48.161405 65.357079 Z M 89.433726 65.357079 C 91.326331 65.357079 92.867453 66.884682 92.880972 68.763769 C 96.530997 66.790052 100.49195 65.357079 104.926055 65.357079 C 119.134115 65.357079 130.719565 76.956047 130.719565 91.164108 L 130.719565 120.404865 C 130.719565 122.29747 129.178443 123.838592 127.285838 123.838592 L 113.523891 123.838592 C 111.617767 123.838592 110.076645 122.29747 110.076645 120.404865 L 110.076645 94.597835 C 110.076645 89.852803 106.223841 85.999999 101.478809 85.999999 C 96.733776 85.999999 92.880972 89.852803 92.880972 94.597835 L 92.880972 120.404865 C 92.880972 122.29747 91.33985 123.838592 89.433726 123.838592 L 75.685298 123.838592 C 73.779174 123.838592 72.238052 122.29747 72.238052 120.404865 L 72.238052 68.804325 C 72.238052 66.898201 73.779174 65.357079 75.685298 65.357079 Z M 51.595132 116.957619 L 58.476106 116.957619 L 58.476106 72.238052 L 51.595132 72.238052 Z M 79.119025 116.957619 L 85.999999 116.957619 L 85.999999 94.597835 C 85.999999 86.108147 92.975602 79.119025 101.478809 79.119025 C 109.982015 79.119025 116.957619 86.108147 116.957619 94.597835 L 116.957619 116.957619 L 123.838592 116.957619 L 123.838592 91.164108 C 123.838592 80.673666 115.416497 72.238052 104.926055 72.238052 C 99.816019 72.238052 95.23321 74.252325 91.82652 77.523829 C 90.826143 78.483651 89.366133 78.754023 88.095383 78.213278 C 86.824634 77.672534 85.999999 76.428822 85.999999 75.049923 L 85.999999 72.238052 L 79.119025 72.238052 Z M 79.119025 116.957619 " transform="matrix(0.288953,0,0,0.288953,0.15,0.15)"/>
<path style=" stroke:none;fill-rule:nonzero;fill:rgb(0%,0%,0%);fill-opacity:1;" d="M 25 2.136719 C 12.386719 2.136719 2.136719 12.386719 2.136719 25 C 2.136719 37.613281 12.386719 47.863281 25 47.863281 C 37.613281 47.863281 47.863281 37.613281 47.863281 25 C 47.863281 12.386719 37.613281 2.136719 25 2.136719 Z M 25 4.125 C 36.539062 4.125 45.875 13.460938 45.875 25 C 45.875 36.539062 36.539062 45.875 25 45.875 C 13.460938 45.875 4.125 36.539062 4.125 25 C 4.125 13.460938 13.460938 4.125 25 4.125 Z M 16.054688 12.078125 C 14.417969 12.078125 13.070312 13.425781 13.070312 15.058594 C 13.070312 16.695312 14.417969 18.042969 16.054688 18.042969 C 17.6875 18.042969 19.035156 16.695312 19.035156 15.058594 C 19.035156 13.425781 17.6875 12.078125 16.054688 12.078125 Z M 16.054688 14.066406 C 16.613281 14.066406 17.046875 14.5 17.046875 15.058594 C 17.046875 15.621094 16.613281 16.054688 16.054688 16.054688 C 15.492188 16.054688 15.058594 15.621094 15.058594 15.058594 C 15.058594 14.5 15.492188 14.066406 16.054688 14.066406 Z M 14.066406 19.035156 C 13.515625 19.035156 13.070312 19.480469 13.070312 20.03125 L 13.070312 34.941406 C 13.070312 35.488281 13.515625 35.933594 14.066406 35.933594 L 18.042969 35.933594 C 18.589844 35.933594 19.035156 35.488281 19.035156 34.941406 L 19.035156 20.03125 C 19.035156 19.480469 18.589844 19.035156 18.042969 19.035156 Z M 22.019531 19.035156 C 21.46875 19.035156 21.023438 19.480469 21.023438 20.03125 L 21.023438 34.941406 C 21.023438 35.488281 21.46875 35.933594 22.019531 35.933594 L 25.992188 35.933594 C 26.542969 35.933594 26.988281 35.488281 26.988281 34.941406 L 26.988281 27.484375 C 26.988281 26.113281 28.101562 25 29.472656 25 C 30.84375 25 31.957031 26.113281 31.957031 27.484375 L 31.957031 34.941406 C 31.957031 35.488281 32.402344 35.933594 32.953125 35.933594 L 36.929688 35.933594 C 37.476562 35.933594 37.921875 35.488281 37.921875 34.941406 L 37.921875 26.492188 C 37.921875 22.386719 34.574219 19.035156 30.46875 19.035156 C 29.1875 19.035156 28.042969 19.449219 26.988281 20.019531 C 26.984375 19.476562 26.539062 19.035156 25.992188 19.035156 Z M 15.058594 21.023438 L 17.046875 21.023438 L 17.046875 33.945312 L 15.058594 33.945312 Z M 23.011719 21.023438 L 25 21.023438 L 25 21.835938 C 25 22.234375 25.238281 22.59375 25.605469 22.75 C 25.972656 22.90625 26.394531 22.828125 26.683594 22.550781 C 27.667969 21.605469 28.992188 21.023438 30.46875 21.023438 C 33.5 21.023438 35.933594 23.460938 35.933594 26.492188 L 35.933594 33.945312 L 33.945312 33.945312 L 33.945312 27.484375 C 33.945312 25.03125 31.929688 23.011719 29.472656 23.011719 C 27.015625 23.011719 25 25.03125 25 27.484375 L 25 33.945312 L 23.011719 33.945312 Z M 23.011719 21.023438 "/>
</g>
</svg>
